<?xml version="1.0" encoding="UTF-8"?>
<svg id="Calque_2" data-name="Calque 2" xmlns="http://www.w3.org/2000/svg" viewBox="0 0 42.05 24.32">
  <defs>
    <style>
      .cls-1 {
        stroke-width: 0px;
      }
    </style>
  </defs>
  <g id="Calque_2-2" data-name="Calque 2">
    <path class="cls-1" d="m20.99,16.54L5.09.55c-.12-.12-.49-.46-1.06-.54-.86-.11-1.47.46-1.55.54-.66.67-1.32,1.34-1.98,2.01C.43,2.65-.03,3.12,0,3.86c.03.65.41,1.06.5,1.16,6.13,6.15,12.27,12.31,18.4,18.46.18.17.91.81,2.04.85,1.26.04,2.08-.7,2.24-.85,6.1-6.13,12.19-12.27,18.29-18.4.12-.11.45-.42.55-.94.16-.87-.5-1.51-.55-1.56-.64-.68-1.28-1.35-1.92-2.03-.08-.08-.65-.63-1.49-.54-.6.06-.99.42-1.1.54-5.32,5.33-10.65,10.66-15.97,15.99Z"/>
  </g>
</svg>