<?xml version="1.0" encoding="UTF-8"?>
<svg id="Calque_2" data-name="Calque 2" xmlns="http://www.w3.org/2000/svg" viewBox="0 0 49.01 79.62">
  <defs>
    <style>
      .cls-1 {
        fill: none;
        stroke: #fff;
        stroke-linecap: round;
        stroke-linejoin: round;
        stroke-width: 4px;
      }
    </style>
  </defs>
  <g id="Calque_2-2" data-name="Calque 2">
    <path class="cls-1" d="m24.55,1c-4.85-.01-8.13,3.28-8.6,3.77-3.49,3.61-2.66,7.53-2.72,22.04-.06,14.98-.98,19.03,2.57,22.64,3.38,3.43,8.15,3.76,8.45,3.78.25.01,5.42.23,9.06-3.02,3.44-3.07,3-6.99,3.02-23.4.02-14.51.37-18.15-2.84-21.63-.73-.79-4.04-4.17-8.94-4.18Z"/>
    <path class="cls-1" d="m1.03,38.78c-.71,13.51,9.95,24.89,22.79,25.26,13.33.38,24.87-11.22,24.15-25.26"/>
    <line class="cls-1" x1="15.67" y1="78.62" x2="34.39" y2="78.62"/>
    <line class="cls-1" x1="24.74" y1="64.05" x2="24.74" y2="77.62"/>
  </g>
</svg>