<?xml version="1.0" encoding="UTF-8"?>
<svg id="Calque_2" data-name="Calque 2" xmlns="http://www.w3.org/2000/svg" viewBox="0 0 72.3 51">
  <defs>
    <style>
      .cls-1 {
        fill: #fff;
        stroke-width: 0px;
      }

      .cls-2 {
        fill: none;
        stroke: #fff;
        stroke-miterlimit: 10;
        stroke-width: 4px;
      }
    </style>
  </defs>
  <g id="Calque_2-2" data-name="Calque 2">
    <g id="video">
      <line class="cls-2" x1="5.3" y1="49" x2="64.3" y2="49"/>
      <path class="cls-1" d="m3.39,17.47c-.13,1-.98,1.69-1.85,1.61-.77-.08-1.42-.74-1.54-1.61v-5.86c.01-.16.08-.57.37-.94.42-.52.99-.6,1.1-.61h27.68c.08,0,.63,0,1,.49.3.4.27.84.27.94v5.97c-.09.94-.88,1.65-1.74,1.61-.81-.04-1.5-.72-1.57-1.61v-3.92h-10.15v24.88h3.68c.8.17,1.38.92,1.38,1.77s-.57,1.6-1.37,1.77h-10.9c-.8-.19-1.36-.92-1.36-1.77s.57-1.6,1.37-1.77h3.91l-.1-24.76H3.44s-.05,3.82-.05,3.82Z"/>
      <line class="cls-2" x1="21.3" y1="27" x2="72.3" y2="27"/>
      <line class="cls-2" x1="13.3" y1="2" x2="64.3" y2="2"/>
    </g>
  </g>
</svg>